<?xml version="1.0" encoding="UTF-8"?>
<svg id="_레이어_2" data-name="레이어 2" xmlns="http://www.w3.org/2000/svg" viewBox="0 0 594.16 745.88">
  <g id="_격리_모드" data-name="격리 모드">
    <g>
      <path d="M0,177.03h32v164.48H0v-164.48ZM29.41,271.63h4.24c.94-3.61,1.84-6.86,2.71-9.77.86-2.9,2.39-6.35,4.59-10.35,2.2-4,5.57-9.53,10.12-16.59,2.35-5.49,4.86-10.78,7.53-15.88,2.67-5.1,5.96-11.02,9.88-17.77,3.92-6.74,8.55-14.82,13.88-24.24h39.77l-59.77,80.01-32,42.59-.94-28ZM48.71,262.69l19.77-19.53,55.77,98.36h-36.47l-39.06-78.83Z"/>
      <g>
        <path d="M175.07,261.44v-54.59l-47.06-109.89h36.24c1.57,4.71,2.94,9.14,4.12,13.3,1.18,4.16,2.55,9.45,4.12,15.88,3.45,10.2,6.55,19.57,9.29,28.12,2.74,8.55,5.45,18.55,8.12,30h1.88c3.14-14.12,6.24-26.27,9.29-36.47,3.06-10.2,6.47-20.78,10.24-31.77,1.25-3.29,2.39-6.47,3.41-9.53,1.02-3.06,2.15-6.24,3.41-9.53h36.24l-47.77,109.89v54.59h-31.53Z"/>
        <path d="M258.14,96.96h37.18c3.45,22.28,6.27,42.67,8.47,61.18,2.2,13.65,4.24,27.53,6.12,41.65,1.88,14.12,3.68,28.71,5.41,43.77h1.18c2.82-23.37,5.41-43.85,7.77-61.42,1.72-15.37,3.61-29.92,5.65-43.65,2.04-13.73,4.24-27.57,6.59-41.53h33.41c4.71,28.24,9.25,58.67,13.65,91.3,2.35,20.08,4.47,38.51,6.35,55.3h1.18c1.41-12.55,2.78-24.74,4.12-36.59,1.33-11.84,2.86-24.04,4.59-36.59,2.04-13.8,3.92-26.31,5.65-37.53,1.72-11.21,3.76-23.18,6.12-35.89h37.18l-33.41,164.48h-44.24l-16.94-126.6h-1.18l-17.41,126.6h-44l-33.41-164.48Z"/>
      </g>
      <path d="M460.74,177.03h31.77l56.48,118.36h1.41c-.16-.94-.32-2.59-.47-4.94-.32-2.2-.59-4.78-.82-7.77-.24-2.98-.35-6.2-.35-9.65v-95.77l30.59-.24v164.48h-30.12l-58.12-118.36h-1.41c0,.47.24,1.96.71,4.47.78,5.96,1.18,11.61,1.18,16.94v96.95h-30.83v-164.48Z"/>
      <path d="M3.29,399.34h117.66v38.36H40.47v38.59h68.01v20.94H40.47v66.59H3.29v-164.48Z"/>
      <g>
        <path d="M162.8,639.66c-10.91-5.65-18.91-13.57-24-23.77-5.1-10.2-7.33-21.96-6.71-35.3l32.24-4.71c-.32,6.59.98,12.47,3.88,17.65,2.9,5.18,7.29,9.18,13.18,12,5.88,2.82,13.3,4.24,22.24,4.24,6.9,0,12.51-.9,16.82-2.71,4.31-1.8,7.41-4.2,9.29-7.18,1.88-2.98,2.82-6.35,2.82-10.12s-.98-6.9-2.94-9.41c-1.96-2.51-5.29-4.55-10-6.12-4.71-1.57-11.3-3.14-19.77-4.71-15.38-2.67-27.73-6.08-37.06-10.24-9.33-4.15-16.04-9.25-20.12-15.29-4.08-6.04-6.12-13.37-6.12-22,0-15.06,5.61-26.63,16.82-34.71,11.21-8.08,26.16-12.12,44.83-12.12,13.49,0,25.33,2.12,35.53,6.35,10.2,4.24,18.27,11.22,24.24,20.94,5.96,9.73,8.86,22.36,8.71,37.89l-32.94,5.41c.78-8.16-.55-14.63-4-19.41-3.45-4.78-8.08-8.16-13.88-10.12-5.81-1.96-12.24-2.94-19.3-2.94-8.63,0-15.02,1.61-19.18,4.82-4.16,3.22-6.24,7.41-6.24,12.59,0,3.29.78,6.08,2.35,8.35,1.57,2.28,4.43,4.24,8.59,5.88,4.15,1.65,10.08,3.18,17.77,4.59,16.78,2.82,30.08,6.35,39.89,10.59,9.8,4.24,16.9,9.45,21.3,15.65,4.39,6.2,6.59,13.77,6.59,22.71,0,10.2-2.86,19.1-8.59,26.71-5.73,7.61-13.49,13.33-23.3,17.18-9.81,3.84-20.75,5.76-32.83,5.76-15.85,0-29.22-2.82-40.12-8.47Z"/>
        <path d="M331.58,479.41h60.71l52.48,164.48h-40.24c-2.35-7.53-4.79-14.83-7.29-21.88-2.35-7.68-4.55-14.9-6.59-21.65h-56.71c-3.92,12.87-8.39,27.38-13.41,43.53h-41.18l52.24-164.48ZM362.41,498.24h-.71c-4.86,20.39-12.24,47.69-22.12,81.89h45.65c-8.47-28.24-16.08-55.53-22.83-81.89Z"/>
      </g>
      <path d="M555.1,450.87c-2.82-5.8-7.06-10.2-12.71-13.18-5.65-2.98-12.55-4.47-20.71-4.47-9.1,0-16.71,1.88-22.83,5.65-6.12,3.77-10.71,9.26-13.77,16.47-3.06,7.22-4.59,15.92-4.59,26.12s1.61,19.1,4.82,26.24c3.21,7.14,8.04,12.63,14.47,16.47,6.43,3.85,14.2,5.77,23.3,5.77,7.21,0,13.3-1.02,18.24-3.06,4.94-2.04,8.9-5.1,11.88-9.18,2.98-4.08,5.18-9.02,6.59-14.83.15-.31.24-.71.24-1.18l34.12,7.06c-1.73,12.08-5.61,22.59-11.65,31.53-6.04,8.94-14.24,15.81-24.59,20.59-10.35,4.78-22.44,7.18-36.24,7.18-16.16,0-29.93-3.38-41.3-10.12-11.38-6.74-19.96-16.59-25.77-29.53-5.8-12.94-8.71-28.51-8.71-46.71s2.9-34,8.71-46.94c5.8-12.94,14.39-22.79,25.77-29.53,11.37-6.74,25.37-10.12,42-10.12,15.21,0,28.2,2.94,38.95,8.82,10.74,5.88,18.82,14.28,24.24,25.18,5.41,10.91,8.04,23.81,7.88,38.71l-34.12,4.47c0-8.47-1.41-15.61-4.24-21.41Z"/>
    </g>
    <g>
      <path d="M297.08,700.83c-93.08,0-179.73-19.56-252.26-53.22,64.98,59.71,151.21,96.66,246.04,98.21,2.07.02,4.14.06,6.22.06h0c2.07,0,4.14-.04,6.21-.06,94.84-1.55,181.06-38.5,246.04-98.21-72.53,33.65-159.18,53.22-252.26,53.22Z"/>
      <path d="M547.61,96.68C481.41,36.61,393.52,0,297.08,0S112.75,36.61,46.55,96.68c72.17-33.16,158.19-52.42,250.53-52.42s178.36,19.26,250.53,52.42Z"/>
    </g>
  </g>
</svg>